<svg xmlns="http://www.w3.org/2000/svg" viewBox="0 0 640 360" role="img" aria-labelledby="title desc">
  <title id="title">Identity file</title>
  <desc id="desc">A dossier interface defining the character identity.</desc>
  <rect width="640" height="360" fill="#dfe8d7"/>
  <rect x="70" y="54" width="500" height="252" fill="#edf1e6" stroke="#141414" stroke-width="7"/>
  <rect x="70" y="54" width="500" height="48" fill="#366f39"/>
  <circle cx="98" cy="78" r="8" fill="#edf1e6"/>
  <circle cx="126" cy="78" r="8" fill="#edf1e6"/>
  <circle cx="154" cy="78" r="8" fill="#edf1e6"/>
  <rect x="108" y="132" width="126" height="126" fill="#366f39" stroke="#141414" stroke-width="6"/>
  <circle cx="150" cy="176" r="8" fill="#edf1e6"/>
  <circle cx="194" cy="176" r="8" fill="#edf1e6"/>
  <path d="M152 218h40" stroke="#edf1e6" stroke-width="6"/>
  <g fill="#141414">
    <rect x="278" y="136" width="210" height="8"/>
    <rect x="278" y="166" width="154" height="8"/>
    <rect x="278" y="196" width="236" height="8"/>
    <rect x="278" y="226" width="188" height="8"/>
    <rect x="278" y="256" width="220" height="8"/>
  </g>
  <rect x="500" y="128" width="38" height="38" fill="#366f39"/>
  <path d="M510 147l8 8 18-22" fill="none" stroke="#edf1e6" stroke-width="5"/>
  <text x="278" y="90" fill="#edf1e6" font-family="Courier New, monospace" font-size="24" font-weight="700">IDENTITY FILE</text>
</svg>
