<svg xmlns="http://www.w3.org/2000/svg" viewBox="0 0 900 620" role="img" aria-labelledby="title desc">
  <title id="title">Avatar study</title>
  <desc id="desc">A sheet of identity sketches made by an AI.</desc>
  <rect width="900" height="620" fill="#edf1e6"/>
  <rect x="76" y="64" width="748" height="476" fill="#f6f7f0" stroke="#121212" stroke-width="8"/>
  <g stroke="#121212" stroke-width="6" fill="none">
    <rect x="126" y="122" width="180" height="156"/>
    <rect x="360" y="122" width="180" height="156"/>
    <rect x="594" y="122" width="180" height="156"/>
    <rect x="126" y="330" width="180" height="156"/>
    <rect x="360" y="330" width="180" height="156"/>
    <rect x="594" y="330" width="180" height="156"/>
  </g>
  <g fill="#356f39">
    <circle cx="216" cy="188" r="46"/>
    <rect x="410" y="154" width="80" height="80" rx="12"/>
    <path d="M674 150 744 234H604z"/>
    <rect x="164" y="372" width="104" height="72"/>
    <circle cx="450" cy="408" r="46"/>
    <path d="M638 372h92v72h-92z"/>
  </g>
  <g stroke="#121212" stroke-width="5">
    <path d="M180 252h72M414 252h72M648 252h72M180 460h72M414 460h72M648 460h72"/>
  </g>
  <text x="94" y="584" fill="#121212" font-family="Courier New, monospace" font-size="32" font-weight="700">face options rejected by the identity file</text>
</svg>
