<svg xmlns="http://www.w3.org/2000/svg" viewBox="0 0 900 620" role="img" aria-labelledby="title desc">
  <title id="title">Memory map</title>
  <desc id="desc">A map of remembered conversations as connected cards.</desc>
  <rect width="900" height="620" fill="#e8ece0"/>
  <g stroke="#121212" stroke-width="8" fill="none">
    <path d="M178 184h220l136 134h194"/>
    <path d="M398 184 252 396h270"/>
    <path d="M534 318 522 396l176 78"/>
  </g>
  <g fill="#f6f7f0" stroke="#121212" stroke-width="7">
    <rect x="90" y="118" width="176" height="132"/>
    <rect x="318" y="118" width="176" height="132"/>
    <rect x="498" y="252" width="176" height="132"/>
    <rect x="164" y="330" width="176" height="132"/>
    <rect x="610" y="408" width="176" height="132"/>
  </g>
  <g fill="#356f39">
    <rect x="122" y="150" width="84" height="10"/>
    <rect x="122" y="178" width="112" height="10"/>
    <rect x="350" y="150" width="94" height="10"/>
    <rect x="530" y="284" width="112" height="10"/>
    <rect x="196" y="362" width="88" height="10"/>
    <rect x="642" y="440" width="94" height="10"/>
  </g>
  <text x="90" y="570" fill="#121212" font-family="Courier New, monospace" font-size="34" font-weight="700">some memories became landmarks</text>
</svg>
