<svg xmlns="http://www.w3.org/2000/svg" viewBox="0 0 980 680" role="img" aria-labelledby="title desc">
  <title id="title">Night object</title>
  <desc id="desc">A moody still life with a cup, cable, note, and small screen.</desc>
  <rect width="980" height="680" fill="#22221f"/>
  <rect x="78" y="84" width="824" height="512" fill="#cfcac0" opacity="0.95"/>
  <g fill="none" stroke="#151515" stroke-width="7" stroke-linecap="round" stroke-linejoin="round">
    <path d="M142 443c173 32 392 37 700 8"/>
    <path d="M258 262h158l-22 170H280z"/>
    <path d="M270 262c25-32 119-30 146 0"/>
    <path d="M502 241h224v136H502z"/>
    <path d="M540 278h149M540 315h92"/>
    <path d="M718 485c-16-37-10-66 18-85 29-19 64-12 85 15"/>
    <path d="M748 473c17 8 36 8 58 0"/>
    <path d="M436 498c26-76 81-97 164-62 31 13 61 12 89-2"/>
  </g>
  <circle cx="613" cy="309" r="116" fill="#fff6cf" opacity="0.22"/>
  <text x="144" y="540" font-family="monospace" font-size="26" fill="#151515">this looked important at 2am</text>
</svg>
